<svg id="logosandtypes_com" xmlns="http://www.w3.org/2000/svg" viewBox="0 0 150 150"><path d="M0 0h150v150H0V0z" fill="none"/><path d="M68.4 16c-27.8 0-49.3 15.5-49.3 42.8 0 14.4 7.6 25.7 18.3 31.7h39.9c2.5 0 3.6-1.2 3.6-2.9 0-2.3-2.1-3.2-8.3-6.2C58.9 74.8 52.2 71.1 52.2 60c0-8.3 5.7-14.6 15-16.1 1.6-.3 3.8-.4 6.4-.4h21.5v14l33.5-27.7L95.1 2v14H68.4z" fill="#008938"/><path d="M53.3 131.9v14l-33.5-27.7 33.5-27.7v13.9h22.1c1.6 0 3.7-.1 5.2-.2 9.7-1.1 16.8-5.8 16.8-16.7 0-11.4-7.8-15.1-20.7-21.3-6.4-3.1-8-4.2-8-6.1 0-1.6 1.1-2.6 3.1-2.6h39.3c27.5 16.8 21.4 45.8 8.9 59.8-8.7 9.7-22.9 14.7-39.7 14.7h-27z" fill="#f2b700"/></svg>